{
	"asset":{
		"generator":"Khronos glTF Blender I/O v4.1.63",
		"version":"2.0"
	},
	"scene":0,
	"scenes":[
		{
			"name":"Scene",
			"nodes":[
				0
			]
		}
	],
	"nodes":[
		{
			"mesh":0,
			"name":"Mesh_0",
			"rotation":[
				0,
				0.09950371086597443,
				0,
				0.9950371980667114
			]
		}
	],
	"materials":[
		{
			"name":"Material_0",
			"normalTexture":{
				"index":0
			},
			"occlusionTexture":{
				"index":1
			},
			"pbrMetallicRoughness":{
				"baseColorTexture":{
					"index":2
				},
				"metallicFactor":0
			}
		}
	],
	"meshes":[
		{
			"name":"Mesh_0",
			"primitives":[
				{
					"attributes":{
						"POSITION":0,
						"NORMAL":1,
						"TEXCOORD_0":2
					},
					"indices":3,
					"material":0
				}
			]
		}
	],
	"textures":[
		{
			"sampler":0,
			"source":0
		},
		{
			"sampler":0,
			"source":1
		},
		{
			"sampler":0,
			"source":2
		}
	],
	"images":[
		{
			"mimeType":"image/jpeg",
			"name":"Image_0",
			"uri":"Image_0.jpg"
		},
		{
			"mimeType":"image/jpeg",
			"name":"Image_1",
			"uri":"Image_1.jpg"
		},
		{
			"mimeType":"image/jpeg",
			"name":"Image_2",
			"uri":"Image_2.jpg"
		}
	],
	"accessors":[
		{
			"bufferView":0,
			"componentType":5126,
			"count":137517,
			"max":[
				0.0646098256111145,
				0.17205391824245453,
				0.1729080229997635
			],
			"min":[
				-0.0670211911201477,
				0.005269564688205719,
				-0.16837520897388458
			],
			"type":"VEC3"
		},
		{
			"bufferView":1,
			"componentType":5126,
			"count":137517,
			"type":"VEC3"
		},
		{
			"bufferView":2,
			"componentType":5126,
			"count":137517,
			"type":"VEC2"
		},
		{
			"bufferView":3,
			"componentType":5125,
			"count":137535,
			"type":"SCALAR"
		}
	],
	"bufferViews":[
		{
			"buffer":0,
			"byteLength":1650204,
			"byteOffset":0,
			"target":34962
		},
		{
			"buffer":0,
			"byteLength":1650204,
			"byteOffset":1650204,
			"target":34962
		},
		{
			"buffer":0,
			"byteLength":1100136,
			"byteOffset":3300408,
			"target":34962
		},
		{
			"buffer":0,
			"byteLength":550140,
			"byteOffset":4400544,
			"target":34963
		}
	],
	"samplers":[
		{
			"magFilter":9729,
			"minFilter":9987
		}
	],
	"buffers":[
		{
			"byteLength":4950684,
			"uri":"scene.bin"
		}
	]
}
