{
	"asset":{
		"generator":"Khronos glTF Blender I/O v4.1.63",
		"version":"2.0"
	},
	"scene":0,
	"scenes":[
		{
			"name":"Scene",
			"nodes":[
				0
			]
		}
	],
	"nodes":[
		{
			"mesh":0,
			"name":"Mesh_0"
		}
	],
	"materials":[
		{
			"name":"Material_0",
			"normalTexture":{
				"index":0
			},
			"occlusionTexture":{
				"index":1
			},
			"pbrMetallicRoughness":{
				"baseColorTexture":{
					"index":2
				},
				"metallicFactor":0
			}
		}
	],
	"meshes":[
		{
			"name":"Mesh_0",
			"primitives":[
				{
					"attributes":{
						"POSITION":0,
						"NORMAL":1,
						"TEXCOORD_0":2
					},
					"indices":3,
					"material":0
				}
			]
		}
	],
	"textures":[
		{
			"sampler":0,
			"source":0
		},
		{
			"sampler":0,
			"source":1
		},
		{
			"sampler":0,
			"source":2
		}
	],
	"images":[
		{
			"mimeType":"image/jpeg",
			"name":"Image_0",
			"uri":"Image_0.jpg"
		},
		{
			"mimeType":"image/jpeg",
			"name":"Image_1",
			"uri":"Image_1.jpg"
		},
		{
			"mimeType":"image/jpeg",
			"name":"Image_2",
			"uri":"Image_2.jpg"
		}
	],
	"accessors":[
		{
			"bufferView":0,
			"componentType":5126,
			"count":149952,
			"max":[
				0.12205946445465088,
				0.10958348214626312,
				0.08926562964916229
			],
			"min":[
				-0.11197906732559204,
				-7.450580152834618e-09,
				-0.1076730266213417
			],
			"type":"VEC3"
		},
		{
			"bufferView":1,
			"componentType":5126,
			"count":149952,
			"type":"VEC3"
		},
		{
			"bufferView":2,
			"componentType":5126,
			"count":149952,
			"type":"VEC2"
		},
		{
			"bufferView":3,
			"componentType":5125,
			"count":150000,
			"type":"SCALAR"
		}
	],
	"bufferViews":[
		{
			"buffer":0,
			"byteLength":1799424,
			"byteOffset":0,
			"target":34962
		},
		{
			"buffer":0,
			"byteLength":1799424,
			"byteOffset":1799424,
			"target":34962
		},
		{
			"buffer":0,
			"byteLength":1199616,
			"byteOffset":3598848,
			"target":34962
		},
		{
			"buffer":0,
			"byteLength":600000,
			"byteOffset":4798464,
			"target":34963
		}
	],
	"samplers":[
		{
			"magFilter":9729,
			"minFilter":9987
		}
	],
	"buffers":[
		{
			"byteLength":5398464,
			"uri":"scene.bin"
		}
	]
}
